<svg width="104" height="25" viewBox="0 0 104 25" fill="none" xmlns="http://www.w3.org/2000/svg">
<path d="M11.0093 9.04254H7.94176C7.77956 9.04254 7.64807 9.174 7.64807 9.33616V20.0703C7.64807 20.2325 7.77956 20.3639 7.94176 20.3639H11.0093C11.1714 20.3639 11.3029 20.2325 11.3029 20.0703V9.33616C11.3029 9.174 11.1714 9.04254 11.0093 9.04254Z" fill="#3262E6"/>
<path d="M19.1876 10.3731C19.3524 10.7455 19.5707 11.0918 19.8358 11.401C19.8607 11.4299 19.8862 11.4583 19.9121 11.4862C20.0122 11.5936 20.12 11.6936 20.2347 11.7853C20.2621 11.8078 20.2905 11.8292 20.3185 11.8501C20.652 12.0964 20.9896 12.2225 21.3032 12.2225C21.3321 12.2225 21.3606 12.2225 21.389 12.219L21.4199 12.2165H21.4239C21.4418 12.2165 21.4593 12.2125 21.4772 12.2095C21.4857 12.2095 21.4937 12.2066 21.5022 12.2051L21.5336 12.1991L21.559 12.1931L21.5894 12.1861L21.6099 12.1796L21.6448 12.1697L21.6657 12.1622C21.6767 12.1582 21.6882 12.1547 21.6991 12.1502L21.7081 12.1462C21.7231 12.1408 21.7375 12.1348 21.7525 12.1278C21.7789 12.1158 21.8048 12.1029 21.8303 12.0894L21.8382 12.0844C21.8607 12.0715 21.8826 12.0585 21.9041 12.0445C21.9519 12.013 21.9971 11.9777 22.0392 11.9389C22.0422 11.9389 22.0447 11.9334 22.0472 11.9309C22.1091 11.8728 22.1645 11.8083 22.2127 11.7385L22.2212 11.725C22.2351 11.7041 22.2491 11.6831 22.2621 11.6612C22.2639 11.6581 22.2656 11.655 22.2671 11.6517C22.281 11.6278 22.2945 11.6019 22.3069 11.5789C22.3104 11.5725 22.3129 11.566 22.3159 11.56C22.3269 11.5376 22.3379 11.5151 22.3478 11.4917C22.3533 11.4792 22.3578 11.4658 22.3628 11.4528C22.3678 11.4399 22.3772 11.4179 22.3842 11.3995L22.3962 11.3621C22.4484 11.2032 22.4819 11.0387 22.4959 10.8721C22.5458 10.3133 22.4196 9.66372 22.1404 9.04359C21.5296 7.68618 20.4027 6.91451 19.5745 7.28689C19.1502 7.47781 18.8859 7.92397 18.8306 8.5441C18.8181 8.6885 18.8166 8.83365 18.8261 8.97829C18.8623 9.46108 18.9847 9.93348 19.1876 10.3731Z" fill="#3262E6"/>
<path d="M29.4441 7.29388C29.315 7.29379 29.1887 7.33201 29.0812 7.40372C28.9738 7.47543 28.8901 7.57739 28.8406 7.6967C28.7912 7.81602 28.7783 7.94731 28.8035 8.07397C28.8288 8.20062 28.8911 8.31693 28.9825 8.40818C29.0739 8.49943 29.1903 8.56151 29.317 8.58656C29.4438 8.61161 29.5751 8.5985 29.6943 8.5489C29.8136 8.49929 29.9155 8.41542 29.987 8.30791C30.0586 8.20039 30.0966 8.07406 30.0963 7.94492C30.0959 7.7722 30.0271 7.60669 29.9048 7.48465C29.7826 7.36262 29.6169 7.29402 29.4441 7.29388Z" fill="#3262E6"/>
<path d="M26.7731 8.86068C26.7684 8.83923 26.7568 8.81992 26.74 8.80576C26.7232 8.79159 26.7022 8.78336 26.6803 8.78233C26.6583 8.78131 26.6367 8.78756 26.6187 8.8001C26.6006 8.81265 26.5873 8.83079 26.5806 8.85171C26.517 9.01663 26.4196 9.16638 26.2945 9.29132C26.1695 9.41625 26.0196 9.51358 25.8546 9.57702C25.8341 9.58373 25.8163 9.59693 25.8039 9.61463C25.7915 9.63233 25.7852 9.65358 25.7859 9.67517C25.7866 9.69676 25.7944 9.71753 25.8079 9.73436C25.8215 9.75118 25.8402 9.76314 25.8611 9.76845C26.0307 9.81989 26.1849 9.91243 26.3101 10.0378C26.4353 10.1632 26.5275 10.3176 26.5786 10.4873C26.5851 10.5075 26.5979 10.5252 26.6151 10.5376C26.6323 10.5501 26.6531 10.5567 26.6743 10.5566C26.6956 10.5569 26.7163 10.5505 26.7337 10.5382C26.751 10.5259 26.7639 10.5084 26.7706 10.4883C26.8247 10.32 26.9182 10.167 27.0432 10.042C27.1682 9.917 27.3213 9.82357 27.4896 9.76944C27.51 9.76232 27.5276 9.74892 27.5399 9.73116C27.5522 9.7134 27.5586 9.6922 27.5581 9.6706C27.5576 9.649 27.5503 9.62812 27.5371 9.61095C27.524 9.59378 27.5058 9.5812 27.4851 9.57503C27.3134 9.53037 27.1568 9.44057 27.0316 9.31495C26.9064 9.18933 26.8171 9.03247 26.7731 8.86068Z" fill="#3262E6"/>
<path d="M25.5963 5.38064C26.2739 5.60795 26.7142 6.04813 26.9426 6.72658C26.9553 6.76446 26.9795 6.79742 27.0118 6.82084C27.0442 6.84426 27.0831 6.85697 27.1231 6.85719C27.1628 6.85714 27.2016 6.84474 27.234 6.8217C27.2665 6.79866 27.2909 6.76612 27.3041 6.72857C27.5404 6.0571 27.9817 5.61593 28.6538 5.37964C28.6918 5.36605 28.7246 5.34081 28.7475 5.30751C28.7703 5.27422 28.7821 5.23457 28.7811 5.1942C28.7801 5.15383 28.7664 5.1148 28.7419 5.08267C28.7175 5.05054 28.6835 5.02695 28.6448 5.01524C27.9523 4.80836 27.5145 4.37068 27.3075 3.67777C27.2963 3.63971 27.2735 3.60607 27.2423 3.58153C27.2111 3.55698 27.1731 3.54273 27.1334 3.54076C27.0938 3.53879 27.0545 3.54919 27.021 3.57052C26.9875 3.59185 26.9615 3.62306 26.9465 3.65983C26.8272 3.96928 26.6443 4.25031 26.4097 4.48479C26.1751 4.71927 25.8939 4.90201 25.5843 5.02122C25.5481 5.03611 25.5174 5.0617 25.4961 5.09456C25.4749 5.12742 25.4642 5.16598 25.4655 5.20508C25.4668 5.24418 25.4801 5.28195 25.5034 5.31332C25.5268 5.3447 25.5592 5.36819 25.5963 5.38064Z" fill="#3262E6"/>
<path d="M28.59 22.3111H25.527L27.9972 21.2004C28.2179 21.1005 28.39 20.9173 28.4758 20.6908C28.5617 20.4644 28.5544 20.2131 28.4554 19.992L26.2006 14.9817L25.2328 12.8301L22.0108 5.66723C21.9616 5.55776 21.8912 5.45907 21.8038 5.37679C21.7164 5.29451 21.6137 5.23025 21.5014 5.18771C21.3892 5.14516 21.2696 5.12515 21.1496 5.12882C21.0297 5.1325 20.9116 5.15978 20.8021 5.20911L17.2061 6.82574C17.0899 6.87768 16.9861 6.95362 16.9014 7.04857L15.6419 1.72013C15.6145 1.60328 15.5642 1.49299 15.4941 1.39557C15.424 1.29815 15.3353 1.21552 15.2332 1.15241C15.131 1.0893 15.0175 1.04694 14.899 1.02777C14.7804 1.0086 14.6593 1.01299 14.5425 1.04068L11.6605 1.72113C11.4248 1.77724 11.2209 1.92454 11.0937 2.13069C10.9665 2.33685 10.9263 2.58504 10.9818 2.82082L11.9003 6.70909C11.8016 6.67341 11.6976 6.65503 11.5927 6.65476H7.35939C7.24769 6.65501 7.13699 6.6758 7.0328 6.71607V3.90704C7.03254 3.64945 6.93006 3.40248 6.74787 3.22033C6.56568 3.03818 6.31865 2.93573 6.06099 2.93547H2.22164C2.09389 2.93534 1.96737 2.96037 1.84929 3.00912C1.73121 3.05788 1.6239 3.1294 1.53347 3.21962C1.44305 3.30984 1.37128 3.41698 1.32227 3.53493C1.27326 3.65288 1.24797 3.77932 1.24784 3.90704V21.7831C1.24771 21.9713 1.30266 22.1553 1.4059 22.3125H0.833989C0.610966 22.3179 0.398891 22.4103 0.243061 22.5699C0.0872311 22.7295 0 22.9437 0 23.1667C0 23.3898 0.0872311 23.6039 0.243061 23.7635C0.398891 23.9232 0.610966 24.0155 0.833989 24.0209H28.59C28.813 24.0155 29.0251 23.9232 29.181 23.7635C29.3368 23.6039 29.424 23.3898 29.424 23.1667C29.424 22.9437 29.3368 22.7295 29.181 22.5699C29.0251 22.4103 28.813 22.3179 28.59 22.3125V22.3111ZM20.2088 21.0394L19.7919 19.2782L19.4224 17.7154L17.5626 9.84813L19.9699 15.1985L20.9377 17.3495L23.1706 22.3125H18.8017L19.5292 22.1411C19.7652 22.0847 19.9693 21.9371 20.0967 21.7306C20.224 21.5241 20.2644 21.2755 20.2088 21.0394ZM25.7853 15.4901L27.9194 20.2328C27.955 20.3118 27.9578 20.4016 27.9272 20.4826C27.8967 20.5636 27.8352 20.6292 27.7563 20.665L24.1603 22.2826C24.0811 22.318 23.9912 22.3205 23.9102 22.2897C23.8291 22.2589 23.7636 22.1972 23.728 22.1181L21.5939 17.3744L21.6438 17.351L25.7853 15.4901ZM17.2754 7.54308C17.2906 7.50293 17.3135 7.46618 17.343 7.43495C17.3724 7.40372 17.4077 7.37863 17.4469 7.36113L21.0435 5.744C21.0855 5.72516 21.131 5.71531 21.1771 5.71509C21.2166 5.715 21.2559 5.72227 21.2928 5.73652C21.333 5.7516 21.3699 5.77452 21.4012 5.80396C21.4325 5.8334 21.4577 5.86877 21.4753 5.90801L24.5772 12.8027L20.8345 14.4856L20.3858 14.688L17.2819 7.79532C17.264 7.75584 17.2542 7.71318 17.2531 7.66985C17.252 7.62653 17.2596 7.58342 17.2754 7.54308ZM17.0595 18.5733L18.9183 18.1336L19.1532 19.1272L16.7952 19.684L15.6364 19.9586L15.4021 18.9661L17.0595 18.5733ZM12.3825 3.03168L14.4831 2.53568C14.5208 2.52655 14.5599 2.52495 14.5982 2.53097C14.6364 2.53699 14.6731 2.55051 14.7062 2.57075C14.7392 2.59099 14.7679 2.61756 14.7907 2.64892C14.8134 2.68029 14.8297 2.71583 14.8387 2.75352L15.6863 6.33622C15.6952 6.37373 15.6966 6.41263 15.6904 6.45068C15.6842 6.48873 15.6706 6.52519 15.6503 6.55798C15.6301 6.59076 15.6035 6.61922 15.5722 6.64173C15.5409 6.66424 15.5055 6.68036 15.4679 6.68915L13.3672 7.18765C13.3452 7.19276 13.3226 7.19543 13.2999 7.19562C13.2337 7.19568 13.1695 7.17334 13.1176 7.13225C13.0657 7.09116 13.0293 7.03373 13.0142 6.96931L12.1666 3.38661C12.1573 3.34913 12.1556 3.3102 12.1615 3.27205C12.1674 3.2339 12.1807 3.19728 12.2008 3.16431C12.2208 3.13133 12.2472 3.10264 12.2784 3.07988C12.3096 3.05712 12.3449 3.04074 12.3825 3.03168ZM7.03081 21.7816V7.56701C7.03094 7.4804 7.06537 7.39738 7.12658 7.33609C7.18778 7.27481 7.27078 7.24025 7.3574 7.23999H11.5927C11.6794 7.24012 11.7625 7.27462 11.8238 7.33592C11.8851 7.39722 11.9196 7.48032 11.9198 7.56701V21.8395C11.9196 21.9261 11.8851 22.0092 11.8238 22.0704C11.7624 22.1316 11.6793 22.166 11.5927 22.166H7.35939C7.27282 22.1659 7.18982 22.1314 7.1286 22.0702C7.06738 22.009 7.03293 21.926 7.0328 21.8395L7.03081 21.7816ZM1.83521 7.44238H6.44343V8.06351H1.83521V7.44238ZM1.83521 8.65024H6.44343V10.0311H1.83521V8.65024ZM1.83521 17.507H6.44343V18.1277H1.83521V17.507ZM12.5056 21.8395V9.27386L14.7604 18.8146L15.1298 20.3769L15.5462 22.1391C15.5599 22.1977 15.5795 22.2548 15.6045 22.3096H12.374C12.4605 22.168 12.5064 22.0054 12.5066 21.8395H12.5056Z" fill="#3262E6"/>
<path d="M33.2479 10L31.1953 2.72727H32.6122L33.9226 8.07173H33.9901L35.3892 2.72727H36.6783L38.081 8.07528H38.1449L39.4553 2.72727H40.8722L38.8196 10H37.5199L36.0639 4.89702H36.0071L34.5476 10H33.2479ZM41.7857 10V2.72727H46.5158V3.83168H43.1032V5.80611H46.2708V6.91051H43.1032V8.8956H46.5442V10H41.7857ZM47.8599 10V2.72727H50.644C51.1696 2.72727 51.6064 2.81013 51.9544 2.97585C52.3047 3.1392 52.5663 3.36293 52.7392 3.64702C52.9144 3.93111 53.002 4.25308 53.002 4.61293C53.002 4.90885 52.9451 5.16217 52.8315 5.37287C52.7179 5.5812 52.5652 5.75047 52.3734 5.88068C52.1816 6.01089 51.9674 6.1044 51.7306 6.16122V6.23224C51.9887 6.24645 52.2361 6.32576 52.4728 6.47017C52.7119 6.61222 52.9073 6.81345 53.0588 7.07386C53.2103 7.33428 53.286 7.64915 53.286 8.01847C53.286 8.39489 53.1949 8.73343 53.0126 9.03409C52.8303 9.33239 52.5557 9.56795 52.1887 9.74077C51.8218 9.91359 51.3601 10 50.8038 10H47.8599ZM49.1774 8.89915H50.5943C51.0725 8.89915 51.417 8.808 51.6277 8.62571C51.8407 8.44105 51.9473 8.20431 51.9473 7.91548C51.9473 7.70005 51.894 7.50592 51.7875 7.3331C51.6809 7.15791 51.5294 7.0206 51.3329 6.92116C51.1364 6.81937 50.902 6.76847 50.6298 6.76847H49.1774V8.89915ZM49.1774 5.82031H50.4806C50.7079 5.82031 50.9127 5.77888 51.095 5.69602C51.2773 5.6108 51.4205 5.49124 51.5247 5.33736C51.6312 5.18111 51.6845 4.99645 51.6845 4.78338C51.6845 4.50166 51.585 4.26965 51.3862 4.08736C51.1897 3.90507 50.8973 3.81392 50.5091 3.81392H49.1774V5.82031ZM54.4322 10V2.72727H55.7496V8.8956H58.9528V10H54.4322ZM66.3116 6.36364C66.3116 7.14725 66.1648 7.81842 65.8713 8.37713C65.5801 8.93348 65.1824 9.35961 64.6781 9.65554C64.1762 9.95147 63.6068 10.0994 62.97 10.0994C62.3332 10.0994 61.7626 9.95147 61.2583 9.65554C60.7565 9.35724 60.3587 8.92992 60.0652 8.37358C59.774 7.81487 59.6284 7.14489 59.6284 6.36364C59.6284 5.58002 59.774 4.91004 60.0652 4.35369C60.3587 3.79498 60.7565 3.36766 61.2583 3.07173C61.7626 2.7758 62.3332 2.62784 62.97 2.62784C63.6068 2.62784 64.1762 2.7758 64.6781 3.07173C65.1824 3.36766 65.5801 3.79498 65.8713 4.35369C66.1648 4.91004 66.3116 5.58002 66.3116 6.36364ZM64.987 6.36364C64.987 5.81203 64.9006 5.34683 64.7278 4.96804C64.5574 4.58688 64.3206 4.29924 64.0176 4.10511C63.7145 3.90862 63.3654 3.81037 62.97 3.81037C62.5746 3.81037 62.2254 3.90862 61.9224 4.10511C61.6194 4.29924 61.3815 4.58688 61.2086 4.96804C61.0382 5.34683 60.9529 5.81203 60.9529 6.36364C60.9529 6.91525 61.0382 7.38163 61.2086 7.76278C61.3815 8.14157 61.6194 8.42921 61.9224 8.62571C62.2254 8.81984 62.5746 8.9169 62.97 8.9169C63.3654 8.9169 63.7145 8.81984 64.0176 8.62571C64.3206 8.42921 64.5574 8.14157 64.7278 7.76278C64.9006 7.38163 64.987 6.91525 64.987 6.36364ZM72.4293 5.04972C72.3701 4.85795 72.2885 4.68632 72.1843 4.5348C72.0825 4.38092 71.9594 4.24953 71.815 4.14062C71.6729 4.03172 71.5096 3.95005 71.3249 3.8956C71.1403 3.83878 70.939 3.81037 70.7212 3.81037C70.3306 3.81037 69.9826 3.90862 69.6772 4.10511C69.3718 4.30161 69.1315 4.59044 68.9563 4.97159C68.7835 5.35038 68.6971 5.81203 68.6971 6.35653C68.6971 6.90578 68.7835 7.37098 68.9563 7.75213C69.1291 8.13329 69.3694 8.4233 69.6772 8.62216C69.985 8.81866 70.3424 8.9169 70.7496 8.9169C71.119 8.9169 71.4386 8.84588 71.7085 8.70384C71.9807 8.56179 72.1902 8.36056 72.337 8.10014C72.4838 7.83736 72.5572 7.52959 72.5572 7.17685L72.8555 7.22301H70.881V6.19318H73.832V7.06676C73.832 7.68939 73.6995 8.22798 73.4343 8.68253C73.1692 9.13707 72.8046 9.48745 72.3406 9.73366C71.8765 9.97751 71.3439 10.0994 70.7425 10.0994C70.0726 10.0994 69.4843 9.9491 68.9776 9.64844C68.4734 9.34541 68.0792 8.91572 67.7951 8.35938C67.5134 7.80066 67.3725 7.13778 67.3725 6.37074C67.3725 5.78362 67.4554 5.25923 67.6211 4.79759C67.7892 4.33594 68.0236 3.94413 68.3242 3.62216C68.6249 3.29782 68.9776 3.05161 69.3825 2.88352C69.7873 2.71307 70.2276 2.62784 70.7035 2.62784C71.1059 2.62784 71.4812 2.68703 71.8292 2.8054C72.1772 2.9214 72.4862 3.08712 72.756 3.30256C73.0283 3.51799 73.252 3.77367 73.4272 4.0696C73.6024 4.36553 73.7172 4.69223 73.7717 5.04972H72.4293ZM79.9782 5.04972C79.919 4.85795 79.8373 4.68632 79.7331 4.5348C79.6313 4.38092 79.5082 4.24953 79.3638 4.14062C79.2218 4.03172 79.0584 3.95005 78.8738 3.8956C78.6891 3.83878 78.4879 3.81037 78.2701 3.81037C77.8794 3.81037 77.5314 3.90862 77.226 4.10511C76.9206 4.30161 76.6803 4.59044 76.5051 4.97159C76.3323 5.35038 76.2459 5.81203 76.2459 6.35653C76.2459 6.90578 76.3323 7.37098 76.5051 7.75213C76.678 8.13329 76.9183 8.4233 77.226 8.62216C77.5338 8.81866 77.8913 8.9169 78.2985 8.9169C78.6678 8.9169 78.9874 8.84588 79.2573 8.70384C79.5295 8.56179 79.7391 8.36056 79.8858 8.10014C80.0326 7.83736 80.106 7.52959 80.106 7.17685L80.4043 7.22301H78.4299V6.19318H81.3809V7.06676C81.3809 7.68939 81.2483 8.22798 80.9831 8.68253C80.718 9.13707 80.3534 9.48745 79.8894 9.73366C79.4254 9.97751 78.8927 10.0994 78.2914 10.0994C77.6214 10.0994 77.0331 9.9491 76.5265 9.64844C76.0222 9.34541 75.628 8.91572 75.3439 8.35938C75.0622 7.80066 74.9213 7.13778 74.9213 6.37074C74.9213 5.78362 75.0042 5.25923 75.1699 4.79759C75.338 4.33594 75.5724 3.94413 75.873 3.62216C76.1737 3.29782 76.5265 3.05161 76.9313 2.88352C77.3361 2.71307 77.7765 2.62784 78.2523 2.62784C78.6548 2.62784 79.03 2.68703 79.378 2.8054C79.726 2.9214 80.035 3.08712 80.3049 3.30256C80.5771 3.51799 80.8008 3.77367 80.976 4.0696C81.1512 4.36553 81.266 4.69223 81.3205 5.04972H79.9782Z" fill="#3262E6"/>
<path d="M31.6307 19V14.6364H33.0476C33.3118 14.6364 33.5348 14.6832 33.7166 14.777C33.8984 14.8707 34.0362 15.0021 34.13 15.1712C34.2251 15.3402 34.2727 15.5369 34.2727 15.7614C34.2727 15.9375 34.2443 16.0937 34.1875 16.2301C34.1307 16.3665 34.0511 16.4794 33.9489 16.5689C33.848 16.657 33.7294 16.718 33.593 16.7521V16.7777C33.7436 16.7891 33.8835 16.8416 34.0128 16.9354C34.142 17.0277 34.2457 17.1534 34.3239 17.3125C34.4034 17.4716 34.4432 17.657 34.4432 17.8686C34.4432 18.0916 34.3949 18.2884 34.2983 18.4588C34.2031 18.6278 34.0604 18.7607 33.87 18.8572C33.6797 18.9524 33.4439 19 33.1626 19H31.6307ZM31.897 18.7528H33.1626C33.4908 18.7528 33.7429 18.6705 33.919 18.5057C34.0966 18.3409 34.1854 18.1286 34.1854 17.8686C34.1854 17.6854 34.142 17.5213 34.0554 17.3764C33.9702 17.2315 33.8516 17.1172 33.6996 17.0334C33.5476 16.9482 33.3714 16.9055 33.1712 16.9055H31.897V18.7528ZM31.897 16.6626H33.1392C33.3253 16.6626 33.483 16.6222 33.6122 16.5412C33.7429 16.4602 33.8423 16.3516 33.9105 16.2152C33.9801 16.0788 34.0149 15.9276 34.0149 15.7614C34.0149 15.4915 33.9311 15.2777 33.7635 15.12C33.5959 14.9624 33.3572 14.8835 33.0476 14.8835H31.897V16.6626ZM35.6603 14.6364V19H35.4004V14.6364H35.6603ZM37.9529 19.0682C37.6831 19.0682 37.443 18.9957 37.2328 18.8509C37.0225 18.7045 36.8571 18.5036 36.7363 18.2479C36.6156 17.9922 36.5552 17.701 36.5552 17.3743C36.5552 17.0462 36.6156 16.755 36.7363 16.5007C36.8571 16.245 37.0225 16.044 37.2328 15.8977C37.443 15.7514 37.6831 15.6783 37.9529 15.6783C38.2228 15.6783 38.4629 15.7514 38.6731 15.8977C38.8833 16.044 39.0488 16.245 39.1696 16.5007C39.2903 16.7564 39.3507 17.0476 39.3507 17.3743C39.3507 17.701 39.2903 17.9922 39.1696 18.2479C39.0488 18.5036 38.8833 18.7045 38.6731 18.8509C38.4629 18.9957 38.2228 19.0682 37.9529 19.0682ZM37.9529 18.8274C38.1816 18.8274 38.3812 18.7628 38.5517 18.6335C38.7235 18.5043 38.8564 18.3295 38.9501 18.1094C39.0453 17.8892 39.0929 17.6442 39.0929 17.3743C39.0929 17.1044 39.0453 16.8601 38.9501 16.6413C38.8549 16.4212 38.7221 16.2464 38.5517 16.1172C38.3812 15.9865 38.1816 15.9212 37.9529 15.9212C37.7243 15.9212 37.5247 15.9865 37.3542 16.1172C37.1838 16.2464 37.051 16.4212 36.9558 16.6413C36.8606 16.8601 36.813 17.1044 36.813 17.3743C36.813 17.6442 36.8599 17.8892 36.9537 18.1094C37.0488 18.3295 37.1816 18.5043 37.3521 18.6335C37.524 18.7628 37.7243 18.8274 37.9529 18.8274ZM41.4265 20.2955C41.2234 20.2955 41.0408 20.2685 40.8789 20.2145C40.717 20.1619 40.5792 20.0866 40.4656 19.9886C40.3533 19.8906 40.2674 19.7741 40.2077 19.6392L40.4251 19.5114C40.4734 19.6165 40.5423 19.7102 40.6317 19.7926C40.7212 19.875 40.832 19.9396 40.9641 19.9865C41.0977 20.0334 41.2518 20.0568 41.4265 20.0568C41.7418 20.0568 41.9911 19.9751 42.1744 19.8118C42.359 19.6499 42.4513 19.4013 42.4513 19.0661V18.2521H42.4258C42.3761 18.3942 42.3022 18.5206 42.2042 18.6314C42.1076 18.7408 41.989 18.8267 41.8484 18.8892C41.7077 18.9517 41.5479 18.983 41.369 18.983C41.1104 18.983 40.8832 18.9162 40.6871 18.7827C40.4911 18.6491 40.3384 18.4616 40.229 18.2202C40.1197 17.9773 40.065 17.6918 40.065 17.3636C40.065 17.0355 40.1183 16.745 40.2248 16.4922C40.3327 16.2379 40.4847 16.0391 40.6808 15.8956C40.8768 15.7507 41.1069 15.6783 41.3711 15.6783C41.56 15.6783 41.7234 15.7145 41.8612 15.7869C42.0004 15.858 42.1168 15.9524 42.2106 16.0703C42.3043 16.1882 42.3768 16.3175 42.4279 16.4581H42.4577V15.7273H42.7092V19.0767C42.7092 19.3494 42.6552 19.576 42.5472 19.7564C42.4407 19.9368 42.2908 20.0717 42.0977 20.1612C41.9059 20.2507 41.6822 20.2955 41.4265 20.2955ZM41.3924 18.7422C41.6112 18.7422 41.7994 18.6868 41.957 18.576C42.1161 18.4638 42.2383 18.3047 42.3235 18.0987C42.4102 17.8913 42.4535 17.6456 42.4535 17.3615C42.4535 17.0859 42.4116 16.8395 42.3278 16.6222C42.244 16.4048 42.1225 16.2337 41.9634 16.1087C41.8043 15.9837 41.614 15.9212 41.3924 15.9212C41.1665 15.9212 40.9741 15.9851 40.815 16.1129C40.6559 16.2393 40.5337 16.4112 40.4485 16.6286C40.3647 16.8459 40.3228 17.0902 40.3228 17.3615C40.3228 17.6342 40.3654 17.8743 40.4506 18.0817C40.5359 18.2876 40.658 18.4496 40.8171 18.5675C40.9762 18.6839 41.168 18.7422 41.3924 18.7422ZM46.3574 19.0703C46.1685 19.0703 45.9952 19.0327 45.8375 18.9574C45.6813 18.8821 45.5556 18.772 45.4604 18.6271C45.3667 18.4822 45.3198 18.3061 45.3198 18.0987C45.3198 17.9624 45.3439 17.8423 45.3922 17.7386C45.4405 17.6349 45.5151 17.5455 45.6159 17.4702C45.7168 17.3949 45.8461 17.3331 46.0037 17.2848C46.1614 17.2351 46.3496 17.1967 46.5684 17.1697C46.7346 17.1499 46.883 17.1307 47.0137 17.1122C47.1444 17.0923 47.2466 17.0618 47.3205 17.0206C47.3958 16.9794 47.4334 16.9169 47.4334 16.8331V16.6967C47.4334 16.4581 47.3581 16.2685 47.2076 16.1278C47.057 15.9872 46.8496 15.9169 46.5854 15.9169C46.351 15.9169 46.1536 15.9687 45.9931 16.0724C45.834 16.1747 45.7225 16.3068 45.6586 16.4688L45.4135 16.3771C45.476 16.2209 45.5662 16.0909 45.6841 15.9872C45.8034 15.8835 45.9398 15.8061 46.0932 15.755C46.248 15.7038 46.41 15.6783 46.579 15.6783C46.7253 15.6783 46.8645 15.6989 46.9966 15.7401C47.1301 15.7812 47.2488 15.8438 47.3525 15.9276C47.4576 16.0114 47.5407 16.1186 47.6017 16.2493C47.6628 16.3786 47.6934 16.5334 47.6934 16.7138V19H47.4334V18.4098H47.4142C47.3574 18.532 47.2793 18.6435 47.1799 18.7443C47.0819 18.8438 46.9632 18.9233 46.824 18.983C46.6863 19.0412 46.5307 19.0703 46.3574 19.0703ZM46.383 18.8295C46.5875 18.8295 46.7686 18.7798 46.9263 18.6804C47.0854 18.5795 47.2097 18.4418 47.2992 18.267C47.3887 18.0923 47.4334 17.8942 47.4334 17.6726V17.1911C47.4007 17.2195 47.3532 17.245 47.2907 17.2678C47.2296 17.2891 47.16 17.3082 47.0819 17.3253C47.0051 17.3409 46.9242 17.3551 46.839 17.3679C46.7551 17.3793 46.6735 17.3899 46.5939 17.3999C46.3553 17.4283 46.1607 17.4723 46.0101 17.532C45.861 17.5902 45.7516 17.6669 45.682 17.7621C45.6138 17.8572 45.5797 17.9723 45.5797 18.1072C45.5797 18.3303 45.6564 18.5064 45.8098 18.6357C45.9632 18.7649 46.1543 18.8295 46.383 18.8295ZM49.0431 16.8778V19H48.7832V15.7273H49.0368V16.245H49.0623C49.139 16.076 49.2619 15.9403 49.4309 15.8381C49.6 15.7358 49.801 15.6847 50.0339 15.6847C50.2541 15.6847 50.4473 15.7315 50.6135 15.8253C50.7811 15.919 50.9118 16.0526 51.0055 16.2259C51.1007 16.3977 51.1483 16.603 51.1483 16.8416V19H50.8883V16.8523C50.8883 16.5739 50.8052 16.3501 50.639 16.1811C50.4743 16.0107 50.2562 15.9254 49.9849 15.9254C49.8031 15.9254 49.6412 15.9652 49.4991 16.0447C49.3571 16.1243 49.2456 16.2358 49.1646 16.3793C49.0836 16.5213 49.0431 16.6875 49.0431 16.8778ZM52.3201 20.2273C52.2548 20.2273 52.1902 20.2202 52.1262 20.206C52.0623 20.1918 52.0048 20.1733 51.9537 20.1506L52.0304 19.9226C52.1639 19.9737 52.2846 19.9922 52.3926 19.978C52.502 19.9638 52.5985 19.9141 52.6824 19.8288C52.7662 19.7436 52.8372 19.6186 52.8954 19.4538L53.0446 19.0447L51.845 15.7273H52.1241L53.1639 18.6655H53.1852L54.225 15.7273H54.5041L53.1234 19.5561C53.0708 19.7038 53.0048 19.8274 52.9252 19.9268C52.8457 20.0263 52.7548 20.1009 52.6525 20.1506C52.5517 20.2017 52.4409 20.2273 52.3201 20.2273ZM56.0302 19L55.0501 15.7273H55.3228L56.1665 18.6186H56.19L57.0359 15.7273H57.3065L58.1502 18.6165H58.1715L59.0153 15.7273H59.288L58.3079 19H58.0181L57.1829 16.1513H57.1552L56.32 19H56.0302ZM60.3576 16.8778V19H60.0977V14.6364H60.3576V16.245H60.3832C60.4599 16.0746 60.582 15.9389 60.7496 15.8381C60.9187 15.7358 61.1211 15.6847 61.3569 15.6847C61.5771 15.6847 61.771 15.7315 61.9386 15.8253C62.1062 15.9176 62.2369 16.0504 62.3306 16.2237C62.4258 16.3956 62.4734 16.6016 62.4734 16.8416V19H62.2156V16.8523C62.2156 16.5724 62.1325 16.348 61.9663 16.179C61.8001 16.0099 61.5806 15.9254 61.3079 15.9254C61.1246 15.9254 60.9613 15.9652 60.8178 16.0447C60.6744 16.1243 60.5614 16.2358 60.479 16.3793C60.3981 16.5213 60.3576 16.6875 60.3576 16.8778ZM64.8251 19.0682C64.5297 19.0682 64.2725 18.995 64.0538 18.8487C63.835 18.7024 63.666 18.5021 63.5467 18.2479C63.4274 17.9936 63.3677 17.7038 63.3677 17.3786C63.3677 17.0518 63.4274 16.7607 63.5467 16.505C63.6674 16.2493 63.8329 16.0476 64.0431 15.8999C64.2534 15.7521 64.4934 15.6783 64.7633 15.6783C64.9466 15.6783 65.1199 15.7152 65.2832 15.7891C65.448 15.8615 65.5929 15.9666 65.7179 16.1044C65.8443 16.2422 65.943 16.4084 66.014 16.603C66.0865 16.7976 66.1227 17.0163 66.1227 17.2592V17.4212H63.5318V17.1847H65.8627C65.8627 16.9474 65.8145 16.7337 65.7179 16.5433C65.6213 16.353 65.4899 16.2017 65.3237 16.0895C65.1575 15.9773 64.9707 15.9212 64.7633 15.9212C64.546 15.9212 64.3521 15.9822 64.1816 16.1044C64.0126 16.2251 63.8784 16.3885 63.7789 16.5945C63.6809 16.8004 63.6298 17.0305 63.6255 17.2848V17.3913C63.6255 17.6641 63.6731 17.9091 63.7683 18.1264C63.8649 18.3423 64.0027 18.5135 64.1816 18.6399C64.3606 18.7649 64.5751 18.8274 64.8251 18.8274C65.0041 18.8274 65.1568 18.7976 65.2832 18.7379C65.411 18.6768 65.5154 18.603 65.5964 18.5163C65.6774 18.4297 65.7385 18.3459 65.7797 18.2649L66.0162 18.3608C65.9664 18.4702 65.889 18.5795 65.7839 18.6889C65.6802 18.7969 65.5481 18.8871 65.3876 18.9595C65.2285 19.032 65.041 19.0682 64.8251 19.0682ZM67.0176 19V15.7273H67.2711V16.2386H67.2946C67.3656 16.071 67.4856 15.9368 67.6547 15.8359C67.8237 15.7337 68.0162 15.6825 68.2321 15.6825C68.2548 15.6825 68.2775 15.6825 68.3002 15.6825C68.323 15.6825 68.3443 15.6832 68.3642 15.6847V15.9467C68.3471 15.9453 68.3265 15.9432 68.3024 15.9403C68.2797 15.9361 68.2512 15.9339 68.2172 15.9339C68.0353 15.9339 67.8734 15.973 67.7314 16.0511C67.5907 16.1293 67.4799 16.2372 67.399 16.375C67.318 16.5114 67.2775 16.6676 67.2775 16.8438V19H67.0176ZM70.2392 19.0682C69.9437 19.0682 69.6866 18.995 69.4679 18.8487C69.2491 18.7024 69.0801 18.5021 68.9608 18.2479C68.8414 17.9936 68.7818 17.7038 68.7818 17.3786C68.7818 17.0518 68.8414 16.7607 68.9608 16.505C69.0815 16.2493 69.247 16.0476 69.4572 15.8999C69.6674 15.7521 69.9075 15.6783 70.1774 15.6783C70.3606 15.6783 70.5339 15.7152 70.6973 15.7891C70.862 15.8615 71.0069 15.9666 71.1319 16.1044C71.2583 16.2422 71.3571 16.4084 71.4281 16.603C71.5005 16.7976 71.5368 17.0163 71.5368 17.2592V17.4212H68.9458V17.1847H71.2768C71.2768 16.9474 71.2285 16.7337 71.1319 16.5433C71.0353 16.353 70.9039 16.2017 70.7377 16.0895C70.5716 15.9773 70.3848 15.9212 70.1774 15.9212C69.96 15.9212 69.7662 15.9822 69.5957 16.1044C69.4267 16.2251 69.2924 16.3885 69.193 16.5945C69.095 16.8004 69.0439 17.0305 69.0396 17.2848V17.3913C69.0396 17.6641 69.0872 17.9091 69.1824 18.1264C69.2789 18.3423 69.4167 18.5135 69.5957 18.6399C69.7747 18.7649 69.9892 18.8274 70.2392 18.8274C70.4181 18.8274 70.5708 18.7976 70.6973 18.7379C70.8251 18.6768 70.9295 18.603 71.0105 18.5163C71.0914 18.4297 71.1525 18.3459 71.1937 18.2649L71.4302 18.3608C71.3805 18.4702 71.3031 18.5795 71.198 18.6889C71.0943 18.7969 70.9622 18.8871 70.8017 18.9595C70.6426 19.032 70.4551 19.0682 70.2392 19.0682ZM74.9863 19.0703C74.7974 19.0703 74.6241 19.0327 74.4664 18.9574C74.3102 18.8821 74.1845 18.772 74.0893 18.6271C73.9956 18.4822 73.9487 18.3061 73.9487 18.0987C73.9487 17.9624 73.9728 17.8423 74.0211 17.7386C74.0694 17.6349 74.144 17.5455 74.2449 17.4702C74.3457 17.3949 74.475 17.3331 74.6326 17.2848C74.7903 17.2351 74.9785 17.1967 75.1973 17.1697C75.3635 17.1499 75.5119 17.1307 75.6426 17.1122C75.7733 17.0923 75.8755 17.0618 75.9494 17.0206C76.0247 16.9794 76.0623 16.9169 76.0623 16.8331V16.6967C76.0623 16.4581 75.987 16.2685 75.8365 16.1278C75.6859 15.9872 75.4785 15.9169 75.2143 15.9169C74.9799 15.9169 74.7825 15.9687 74.622 16.0724C74.4629 16.1747 74.3514 16.3068 74.2875 16.4688L74.0424 16.3771C74.1049 16.2209 74.1951 16.0909 74.313 15.9872C74.4324 15.8835 74.5687 15.8061 74.7221 15.755C74.877 15.7038 75.0389 15.6783 75.2079 15.6783C75.3542 15.6783 75.4934 15.6989 75.6255 15.7401C75.7591 15.7812 75.8777 15.8438 75.9814 15.9276C76.0865 16.0114 76.1696 16.1186 76.2306 16.2493C76.2917 16.3786 76.3223 16.5334 76.3223 16.7138V19H76.0623V18.4098H76.0431C75.9863 18.532 75.9082 18.6435 75.8088 18.7443C75.7108 18.8438 75.5922 18.9233 75.4529 18.983C75.3152 19.0412 75.1596 19.0703 74.9863 19.0703ZM75.0119 18.8295C75.2164 18.8295 75.3975 18.7798 75.5552 18.6804C75.7143 18.5795 75.8386 18.4418 75.9281 18.267C76.0176 18.0923 76.0623 17.8942 76.0623 17.6726V17.1911C76.0297 17.2195 75.9821 17.245 75.9196 17.2678C75.8585 17.2891 75.7889 17.3082 75.7108 17.3253C75.6341 17.3409 75.5531 17.3551 75.4679 17.3679C75.3841 17.3793 75.3024 17.3899 75.2228 17.3999C74.9842 17.4283 74.7896 17.4723 74.639 17.532C74.4899 17.5902 74.3805 17.6669 74.3109 17.7621C74.2427 17.8572 74.2086 17.9723 74.2086 18.1072C74.2086 18.3303 74.2853 18.5064 74.4387 18.6357C74.5922 18.7649 74.7832 18.8295 75.0119 18.8295ZM77.6721 16.8778V19H77.4121V15.7273H77.6657V16.245H77.6912C77.7679 16.076 77.8908 15.9403 78.0598 15.8381C78.2289 15.7358 78.4299 15.6847 78.6628 15.6847C78.883 15.6847 79.0762 15.7315 79.2424 15.8253C79.41 15.919 79.5407 16.0526 79.6344 16.2259C79.7296 16.3977 79.7772 16.603 79.7772 16.8416V19H79.5172V16.8523C79.5172 16.5739 79.4341 16.3501 79.2679 16.1811C79.1032 16.0107 78.8851 15.9254 78.6138 15.9254C78.432 15.9254 78.2701 15.9652 78.128 16.0447C77.986 16.1243 77.8745 16.2358 77.7935 16.3793C77.7125 16.5213 77.6721 16.6875 77.6721 16.8778ZM80.949 20.2273C80.8837 20.2273 80.8191 20.2202 80.7551 20.206C80.6912 20.1918 80.6337 20.1733 80.5826 20.1506L80.6593 19.9226C80.7928 19.9737 80.9135 19.9922 81.0215 19.978C81.1309 19.9638 81.2275 19.9141 81.3113 19.8288C81.3951 19.7436 81.4661 19.6186 81.5243 19.4538L81.6735 19.0447L80.4739 15.7273H80.753L81.7928 18.6655H81.8141L82.8539 15.7273H83.133L81.7523 19.5561C81.6998 19.7038 81.6337 19.8274 81.5542 19.9268C81.4746 20.0263 81.3837 20.1009 81.2814 20.1506C81.1806 20.2017 81.0698 20.2273 80.949 20.2273ZM85.1023 15.7273V15.9595H83.6726V15.7273H85.1023ZM84.1562 14.9432H84.4141V18.2266C84.4141 18.3601 84.4396 18.4695 84.4908 18.5547C84.5433 18.6385 84.6115 18.701 84.6953 18.7422C84.7805 18.782 84.8714 18.8018 84.968 18.8018C85.0149 18.8018 85.0554 18.7983 85.0895 18.7912C85.125 18.7841 85.1584 18.7749 85.1896 18.7635L85.2536 19C85.2138 19.0142 85.1697 19.0263 85.1214 19.0362C85.0732 19.0476 85.0163 19.0533 84.951 19.0533C84.8146 19.0533 84.6854 19.0227 84.5632 18.9616C84.4425 18.9006 84.3445 18.8118 84.2692 18.6953C84.1939 18.5788 84.1562 18.4382 84.1562 18.2734V14.9432ZM86.0792 19V15.7273H86.337V19H86.0792ZM86.2092 15.1477C86.1523 15.1477 86.1026 15.1278 86.06 15.0881C86.0188 15.0483 85.9982 15 85.9982 14.9432C85.9982 14.8864 86.0188 14.8381 86.06 14.7983C86.1012 14.7585 86.1509 14.7386 86.2092 14.7386C86.266 14.7386 86.315 14.7585 86.3562 14.7983C86.3988 14.8381 86.4201 14.8864 86.4201 14.9432C86.4201 15 86.3995 15.0483 86.3583 15.0881C86.3171 15.1278 86.2674 15.1477 86.2092 15.1477ZM87.4258 19V15.7273H87.6793V16.2216H87.7049C87.7674 16.0568 87.8754 15.9261 88.0288 15.8295C88.1822 15.733 88.3668 15.6847 88.5827 15.6847C88.82 15.6847 89.011 15.7415 89.1559 15.8551C89.3022 15.9687 89.4073 16.1229 89.4712 16.3175H89.4947C89.5586 16.1257 89.6729 15.9723 89.8377 15.8572C90.0039 15.7422 90.2085 15.6847 90.4513 15.6847C90.7681 15.6847 91.0096 15.7848 91.1758 15.9851C91.3434 16.1839 91.4272 16.4567 91.4272 16.8033V19H91.1673V16.8033C91.1673 16.5305 91.1019 16.3161 90.9712 16.1598C90.8406 16.0036 90.6488 15.9254 90.396 15.9254C90.1261 15.9254 89.9187 16.0099 89.7738 16.179C89.6289 16.348 89.5565 16.5632 89.5565 16.8246V19H89.2965V16.7862C89.2965 16.532 89.2326 16.3253 89.1048 16.1662C88.9769 16.0057 88.7852 15.9254 88.5295 15.9254C88.3562 15.9254 88.2063 15.9652 88.0799 16.0447C87.9549 16.1243 87.8576 16.2337 87.788 16.3729C87.7198 16.5121 87.6857 16.6719 87.6857 16.8523V19H87.4258ZM93.7821 19.0682C93.4867 19.0682 93.2296 18.995 93.0108 18.8487C92.7921 18.7024 92.623 18.5021 92.5037 18.2479C92.3844 17.9936 92.3248 17.7038 92.3248 17.3786C92.3248 17.0518 92.3844 16.7607 92.5037 16.505C92.6245 16.2493 92.79 16.0476 93.0002 15.8999C93.2104 15.7521 93.4505 15.6783 93.7203 15.6783C93.9036 15.6783 94.0769 15.7152 94.2402 15.7891C94.405 15.8615 94.5499 15.9666 94.6749 16.1044C94.8013 16.2422 94.9 16.4084 94.9711 16.603C95.0435 16.7976 95.0797 17.0163 95.0797 17.2592V17.4212H92.4888V17.1847H94.8198C94.8198 16.9474 94.7715 16.7337 94.6749 16.5433C94.5783 16.353 94.4469 16.2017 94.2807 16.0895C94.1145 15.9773 93.9277 15.9212 93.7203 15.9212C93.503 15.9212 93.3091 15.9822 93.1387 16.1044C92.9696 16.2251 92.8354 16.3885 92.736 16.5945C92.638 16.8004 92.5868 17.0305 92.5826 17.2848V17.3913C92.5826 17.6641 92.6301 17.9091 92.7253 18.1264C92.8219 18.3423 92.9597 18.5135 93.1387 18.6399C93.3176 18.7649 93.5321 18.8274 93.7821 18.8274C93.9611 18.8274 94.1138 18.7976 94.2402 18.7379C94.3681 18.6768 94.4725 18.603 94.5534 18.5163C94.6344 18.4297 94.6955 18.3459 94.7367 18.2649L94.9732 18.3608C94.9235 18.4702 94.8461 18.5795 94.7409 18.6889C94.6373 18.7969 94.5051 18.8871 94.3446 18.9595C94.1855 19.032 93.998 19.0682 93.7821 19.0682Z" fill="#626262"/>
</svg>
