<svg width="9" height="13" viewBox="0 0 9 13" fill="none" xmlns="http://www.w3.org/2000/svg">
<path d="M8.00076 6C7.80285 5.99985 7.60934 6.05843 7.44474 6.16832C7.28015 6.27821 7.15186 6.43447 7.07612 6.61732C7.00039 6.80016 6.9806 7.00137 7.01929 7.19547C7.05797 7.38956 7.15338 7.56781 7.29343 7.70765C7.43349 7.84748 7.61188 7.94262 7.80604 7.98101C8.00019 8.0194 8.20137 7.99931 8.3841 7.92329C8.56683 7.84728 8.72289 7.71875 8.83253 7.55398C8.94217 7.38921 9.00045 7.19562 9 6.99771C8.99939 6.73302 8.89387 6.47937 8.70657 6.29235C8.51926 6.10533 8.26545 6.0002 8.00076 6Z" fill="#3262E6"/>
<path d="M1.23681 3.32885C2.463 3.74008 3.25971 4.53637 3.67295 5.76373C3.69592 5.83225 3.73977 5.89187 3.79834 5.93424C3.85691 5.97661 3.92728 5.9996 3.99958 6C4.07156 5.99992 4.14174 5.97748 4.20041 5.9358C4.25909 5.89412 4.30336 5.83525 4.3271 5.76733C4.75478 4.5526 5.5533 3.7545 6.76956 3.32705C6.83838 3.30246 6.89769 3.2568 6.93905 3.19656C6.9804 3.13633 7.00169 3.0646 6.99989 2.99157C6.9981 2.91854 6.97329 2.84794 6.92902 2.78982C6.88475 2.73169 6.82327 2.689 6.75332 2.66783C5.50006 2.29358 4.70786 1.50179 4.33342 0.248284C4.31309 0.179418 4.27184 0.118573 4.21539 0.0741674C4.15893 0.0297621 4.09007 0.00399326 4.01832 0.000427448C3.94657 -0.00313837 3.87548 0.015675 3.8149 0.0542639C3.75432 0.0928528 3.70724 0.149309 3.68017 0.215819C3.46419 0.775641 3.13325 1.28403 2.70869 1.70821C2.28412 2.1324 1.77535 2.46298 1.21516 2.67865C1.14968 2.70559 1.094 2.75188 1.05558 2.81132C1.01716 2.87077 0.997837 2.94053 1.00019 3.01126C1.00255 3.08199 1.02647 3.15032 1.06876 3.20708C1.11105 3.26384 1.16969 3.30633 1.23681 3.32885Z" fill="#3262E6"/>
<path d="M0.130867 10.8401C0.808488 11.0674 1.24877 11.5076 1.47713 12.1861C1.48983 12.2239 1.51406 12.2569 1.54642 12.2803C1.57879 12.3037 1.61768 12.3164 1.65763 12.3167C1.69741 12.3166 1.7362 12.3042 1.76862 12.2812C1.80104 12.2581 1.82551 12.2256 1.83863 12.188C2.07498 11.5166 2.51625 11.0754 3.18839 10.8391C3.22642 10.8255 3.2592 10.8003 3.28205 10.767C3.3049 10.7337 3.31667 10.694 3.31568 10.6537C3.31468 10.6133 3.30098 10.5743 3.27651 10.5421C3.25205 10.51 3.21807 10.4864 3.17941 10.4747C2.48683 10.2678 2.04905 9.83016 1.84212 9.13725C1.83089 9.09918 1.80809 9.06554 1.77689 9.041C1.7457 9.01645 1.70764 9.00221 1.66799 9.00024C1.62834 8.99827 1.58906 9.00866 1.55558 9.03C1.5221 9.05133 1.49608 9.08253 1.48112 9.1193C1.36177 9.42876 1.17888 9.70978 0.944258 9.94426C0.709634 10.1787 0.428476 10.3615 0.118901 10.4807C0.0827165 10.4956 0.0519476 10.5212 0.030716 10.554C0.00948445 10.5869 -0.00119548 10.6255 0.000106307 10.6646C0.00140809 10.7037 0.0146283 10.7414 0.0379987 10.7728C0.061369 10.8042 0.0937725 10.8277 0.130867 10.8401Z" fill="#3262E6"/>
</svg>
